<?xml version="1.0" encoding="utf-8"?>
<svg version="1.1" xmlns:xlink="http://www.w3.org/1999/xlink" width="97px" height="97px" xmlns="http://www.w3.org/2000/svg">
  <g transform="matrix(1 0 0 1 -227 -77 )">
    <path d="M 271.175853693703 77.6951701313317  C 272.613483112925 77.5651305505802  274.056331598701 77.5  275.5 77.5  C 302.009667991878 77.5  323.5 98.9903320081219  323.5 125.5  C 323.5 152.009667991878  302.009667991878 173.5  275.5 173.5  C 248.990332008122 173.5  227.5 152.009667991878  227.5 125.5  C 227.5 117.240967119991  229.630994526507 109.124559465039  233.683035333571 101.934314555991  L 275.25 125.933012701892  A 0.5 0.5 0 0 0 275.997470760719 125.449772097104 L 271.175853693441 77.6951701313554  Z " fill-rule="nonzero" fill="#1990ff" stroke="none" />
    <path d="M 271.175853693703 77.6951701313317  C 272.613483112925 77.5651305505802  274.056331598701 77.5  275.5 77.5  C 302.009667991878 77.5  323.5 98.9903320081219  323.5 125.5  C 323.5 152.009667991878  302.009667991878 173.5  275.5 173.5  C 248.990332008122 173.5  227.5 152.009667991878  227.5 125.5  C 227.5 117.240967119991  229.630994526507 109.124559465039  233.683035333571 101.934314555991  L 275.25 125.933012701892  A 0.5 0.5 0 0 0 275.997470760719 125.449772097104 L 271.175853693441 77.6951701313554  Z " stroke-width="1" stroke="#ffffff" fill="none" />
  </g>
</svg>