<?xml version="1.0" encoding="utf-8"?>
<svg version="1.1" xmlns:xlink="http://www.w3.org/1999/xlink" width="51px" height="81px" xmlns="http://www.w3.org/2000/svg">
  <g transform="matrix(1 0 0 1 -535 -129 )">
    <path d="M 560 129.5  C 565.32 129.5  569.5 133.68  569.5 139  C 569.5 144.32  565.32 148.5  560 148.5  C 554.68 148.5  550.5 144.32  550.5 139  C 550.5 133.68  554.68 129.5  560 129.5  Z " fill-rule="nonzero" fill="#ffffff" stroke="none" />
    <path d="M 560 129.5  C 565.32 129.5  569.5 133.68  569.5 139  C 569.5 144.32  565.32 148.5  560 148.5  C 554.68 148.5  550.5 144.32  550.5 139  C 550.5 133.68  554.68 129.5  560 129.5  Z " stroke-width="1" stroke="#797979" fill="none" />
    <path d="M 535 159  L 585 159  M 560 149  L 560 184  M 540 209  L 560 184  M 560 184  L 580 209  " stroke-width="1" stroke="#797979" fill="none" />
  </g>
</svg>