<?xml version="1.0" encoding="utf-8"?>
<svg version="1.1" xmlns:xlink="http://www.w3.org/1999/xlink" width="20px" height="20px" preserveAspectRatio="xMinYMid meet" viewBox="998 318  20 18" xmlns="http://www.w3.org/2000/svg">
  <path d="M 854 219  L 875 219  A 3 3 0 0 1 878 216 A 3 3 0 0 1 881 219 L 897 219  A 3 3 0 0 1 900 216 A 3 3 0 0 1 903 219 L 927 219  A 3 3 0 0 1 930 216 A 3 3 0 0 1 933 219 L 1008 219  L 1008 327  " stroke-width="2" stroke="#0099cc" fill="none" />
  <path d="M 1000.4 326  L 1008 333  L 1015.6 326  L 1000.4 326  Z " fill-rule="nonzero" fill="#0099cc" stroke="none" />
</svg>