<?xml version="1.0" encoding="utf-8"?>
<svg version="1.1" xmlns:xlink="http://www.w3.org/1999/xlink" width="290px" height="75px" xmlns="http://www.w3.org/2000/svg">
  <g transform="matrix(1 0 0 1 -41 -108 )">
    <path d="M 0 75  C 0 75  7.57374452555664 62.0306722354168  10.6143481316185 59.2089552238807  C 14.1392503298684 55.9378032470254  14.3959657655378 50.8658765824398  21.1890547263682 49.3954992933149  C 33.0419820185064 46.8299101775971  39.7925353644008 53  53.5273631840796 55.2288557213931  C 82.8448671308694 59.9864316638554  74.395594983803 69.2935872700783  91.8358208955224 64.6815920398011  C 106.261177602039 60.8668664357712  102.674673800266 43.8103909187331  111.238805970149 43.2389179588895  C 120.703847809083 42.6073285149807  117.612642583895 62.5866743934741  129.646766169154 64.6815920398011  C 140.36806310949 66.5479709242039  140.402734410998 54.4524377797165  151.537313432836 52.2437810945274  C 165.113002326321 49.5509055065201  162.693092415083 61.3260788491585  174.422885572139 59.2089552238807  C 187.318450706692 56.8814200966951  178.366565176632 47.8885710498092  195.318407960199 43.2389179588895  C 201.38972270807 41.5736413430192  205.169566385854 5.53793066005093  226.164179104478 1.497512437811  C 256.530298613048 -4.34645450006482  290 41  290 41  L 290 75  L 0 75  Z " fill-rule="nonzero" fill="#ffffff" stroke="none" fill-opacity="0.996078431372549" transform="matrix(1 0 0 1 41 108 )" />
  </g>
</svg>