<?xml version="1.0" encoding="utf-8"?>
<svg version="1.1" xmlns:xlink="http://www.w3.org/1999/xlink" width="36px" height="36px" xmlns="http://www.w3.org/2000/svg">
  <g transform="matrix(1 0 0 1 -275 -109 )">
    <path d="M 293 109  C 303.08 109  311 116.92  311 127  C 311 137.08  303.08 145  293 145  C 282.92 145  275 137.08  275 127  C 275 116.92  282.92 109  293 109  Z " fill-rule="nonzero" fill="#ffffff" stroke="none" />
    <path d="M 293 109.5  C 302.8 109.5  310.5 117.2  310.5 127  C 310.5 136.8  302.8 144.5  293 144.5  C 283.2 144.5  275.5 136.8  275.5 127  C 275.5 117.2  283.2 109.5  293 109.5  Z " stroke-width="1" stroke="#ffffff" fill="none" />
  </g>
</svg>