<?xml version="1.0" encoding="utf-8"?>
<svg version="1.1" xmlns:xlink="http://www.w3.org/1999/xlink" width="58px" height="58px" xmlns="http://www.w3.org/2000/svg">
  <g transform="matrix(1 0 0 1 -264 -98 )">
    <path d="M 290.634920925163 98.5983028500282  C 291.421507343589 98.5328018667406  292.210547203713 98.5  293 98.5  C 308.740115370178 98.5  321.5 111.259884629822  321.5 127  C 321.5 142.740115370178  308.740115370178 155.5  293 155.5  C 277.259884629822 155.5  264.5 142.740115370178  264.5 127  C 264.5 122.163975801078  265.730544297354 117.410310639296  268.07207374279 113.185205334252  L 292.75 127.433012701892  A 0.5 0.5 0 0 0 293.497470760719 126.949772097104 L 290.634920925163 98.5983028500282  Z " fill-rule="nonzero" fill="#30c25b" stroke="none" />
    <path d="M 290.634920925163 98.5983028500282  C 291.421507343589 98.5328018667406  292.210547203713 98.5  293 98.5  C 308.740115370178 98.5  321.5 111.259884629822  321.5 127  C 321.5 142.740115370178  308.740115370178 155.5  293 155.5  C 277.259884629822 155.5  264.5 142.740115370178  264.5 127  C 264.5 122.163975801078  265.730544297354 117.410310639296  268.07207374279 113.185205334252  L 292.75 127.433012701892  A 0.5 0.5 0 0 0 293.497470760719 126.949772097104 L 290.634920925163 98.5983028500282  Z " stroke-width="1" stroke="#ffffff" fill="none" />
  </g>
</svg>