<?xml version="1.0" encoding="utf-8"?>
<svg version="1.1" xmlns:xlink="http://www.w3.org/1999/xlink" width="72px" height="72px" xmlns="http://www.w3.org/2000/svg">
  <g transform="matrix(1 0 0 1 -257 -91 )">
    <path d="M 293 91  C 313.16 91  329 106.84  329 127  C 329 147.16  313.16 163  293 163  C 272.84 163  257 147.16  257 127  C 257 106.84  272.84 91  293 91  Z " fill-rule="nonzero" fill="#ffffff" stroke="none" />
    <path d="M 293 91.5  C 312.88 91.5  328.5 107.12  328.5 127  C 328.5 146.88  312.88 162.5  293 162.5  C 273.12 162.5  257.5 146.88  257.5 127  C 257.5 107.12  273.12 91.5  293 91.5  Z " stroke-width="1" stroke="#ffffff" fill="none" />
  </g>
</svg>