<?xml version="1.0" encoding="utf-8"?>
<svg version="1.1" xmlns:xlink="http://www.w3.org/1999/xlink" width="290px" height="36px" xmlns="http://www.w3.org/2000/svg">
  <g transform="matrix(1 0 0 1 -41 -152 )">
    <path d="M 0 36  C 0 36  7.57374452555664 29.7747226730001  10.6143481316185 28.4202985074627  C 14.1392503298684 26.8501455585722  14.3959657655378 24.4156207595711  21.1890547263682 23.7098396607912  C 33.0419820185064 22.4783568852466  39.7925353644008 25.44  53.5273631840796 26.5098507462687  C 82.8448671308694 28.7934871986506  74.395594983803 33.2609218896376  91.8358208955224 31.0471641791045  C 106.261177602039 29.2160958891702  102.674673800266 21.0289876409919  111.238805970149 20.754680620267  C 120.703847809083 20.4515176871907  117.612642583895 30.0416037088676  129.646766169154 31.0471641791045  C 140.36806310949 31.9430260436179  140.402734410998 26.1371701342639  151.537313432836 25.0770149253732  C 165.113002326321 23.7844346431297  162.693092415083 29.4365178475961  174.422885572139 28.4202985074627  C 187.318450706692 27.3030816464136  178.366565176632 22.9865141039084  195.318407960199 20.754680620267  C 201.38972270807 19.9553478446492  205.169566385854 2.65820671682445  226.164179104478 0.718805970149278  C 256.530298613048 -2.08629816003111  290 19.68  290 19.68  L 290 36  L 0 36  Z " fill-rule="nonzero" fill="#ffffff" stroke="none" fill-opacity="0.996078431372549" transform="matrix(1 0 0 1 41 152 )" />
  </g>
</svg>