<?xml version="1.0" encoding="utf-8"?>
<svg version="1.1" xmlns:xlink="http://www.w3.org/1999/xlink" width="290px" height="25px" xmlns="http://www.w3.org/2000/svg">
  <g transform="matrix(1 0 0 1 -41 -158 )">
    <path d="M 0 25  C 0 25  7.57374452555664 20.6768907451389  10.6143481316185 19.7363184079602  C 14.1392503298684 18.6459344156751  14.3959657655378 16.9552921941466  21.1890547263682 16.465166431105  C 33.0419820185064 15.609970059199  39.7925353644008 17.6666666666667  53.5273631840796 18.4096185737977  C 82.8448671308694 19.9954772212851  74.395594983803 23.0978624233594  91.8358208955224 21.5605306799337  C 106.261177602039 20.2889554785904  102.674673800266 14.6034636395777  111.238805970149 14.4129726529632  C 120.703847809083 14.2024428383269  117.612642583895 20.8622247978247  129.646766169154 21.5605306799337  C 140.36806310949 22.1826569747346  140.402734410998 18.1508125932389  151.537313432836 17.4145936981758  C 165.113002326321 16.5169685021734  162.693092415083 20.4420262830528  174.422885572139 19.7363184079602  C 187.318450706692 18.960473365565  178.366565176632 15.9628570166031  195.318407960199 14.4129726529632  C 201.38972270807 13.8578804476731  205.169566385854 1.84597688668364  226.164179104478 0.499170812603666  C 256.530298613048 -1.44881816668827  290 13.6666666666667  290 13.6666666666667  L 290 25  L 0 25  Z " fill-rule="nonzero" fill="#ffffff" stroke="none" fill-opacity="0.996078431372549" transform="matrix(1 0 0 1 41 158 )" />
  </g>
</svg>