<?xml version="1.0" encoding="utf-8"?>
<svg version="1.1" xmlns:xlink="http://www.w3.org/1999/xlink" width="72px" height="72px" xmlns="http://www.w3.org/2000/svg">
  <g transform="matrix(1 0 0 1 -257 -91 )">
    <path d="M 289.931643390283 91.6328515744625  C 290.951955771987 91.5443320750111  291.975698842164 91.5  293 91.5  C 312.606108618993 91.5  328.5 107.393891381007  328.5 127  C 328.5 146.606108618993  312.606108618993 162.5  293 162.5  C 273.393891381007 162.5  257.5 146.606108618993  257.5 127  C 257.5 120.935197654085  259.05371061054 114.974383527166  262.009146950249 109.684772918508  L 292.75 127.433012701892  A 0.5 0.5 0 0 0 293.497470760719 126.949772097104 L 289.931643390243 91.632851574466  Z " fill-rule="nonzero" fill="#0096fa" stroke="none" />
    <path d="M 289.931643390283 91.6328515744625  C 290.951955771987 91.5443320750111  291.975698842164 91.5  293 91.5  C 312.606108618993 91.5  328.5 107.393891381007  328.5 127  C 328.5 146.606108618993  312.606108618993 162.5  293 162.5  C 273.393891381007 162.5  257.5 146.606108618993  257.5 127  C 257.5 120.935197654085  259.05371061054 114.974383527166  262.009146950249 109.684772918508  L 292.75 127.433012701892  A 0.5 0.5 0 0 0 293.497470760719 126.949772097104 L 289.931643390243 91.632851574466  Z " stroke-width="1" stroke="#ffffff" fill="none" />
  </g>
</svg>