<?xml version="1.0" encoding="utf-8"?>
<svg version="1.1" xmlns:xlink="http://www.w3.org/1999/xlink" width="214px" height="61px" xmlns="http://www.w3.org/2000/svg">
  <defs>
    <mask fill="white" id="clip60">
      <path d="M 4 55.6491228070175  L 4 24.0630536737884  L 0.514851485148512 19.2949452840021  L 4 15.8513114469342  L 4 5.35087719298246  C 4 2.35438596491228  6.2 0  9 0  L 209 0  C 211.8 0  214 2.35438596491228  214 5.35087719298246  L 214 55.6491228070175  C 214 58.6456140350877  211.8 61  209 61  L 9 61  C 6.2 61  4 58.6456140350877  4 55.6491228070175  Z " fill-rule="evenodd" />
    </mask>
  </defs>
  <g transform="matrix(1 0 0 1 -73 -179 )">
    <path d="M 4 55.6491228070175  L 4 24.0630536737884  L 0.514851485148512 19.2949452840021  L 4 15.8513114469342  L 4 5.35087719298246  C 4 2.35438596491228  6.2 0  9 0  L 209 0  C 211.8 0  214 2.35438596491228  214 5.35087719298246  L 214 55.6491228070175  C 214 58.6456140350877  211.8 61  209 61  L 9 61  C 6.2 61  4 58.6456140350877  4 55.6491228070175  Z " fill-rule="nonzero" fill="#ffffff" stroke="none" transform="matrix(1 0 0 1 73 179 )" />
    <path d="M 4 55.6491228070175  L 4 24.0630536737884  L 0.514851485148512 19.2949452840021  L 4 15.8513114469342  L 4 5.35087719298246  C 4 2.35438596491228  6.2 0  9 0  L 209 0  C 211.8 0  214 2.35438596491228  214 5.35087719298246  L 214 55.6491228070175  C 214 58.6456140350877  211.8 61  209 61  L 9 61  C 6.2 61  4 58.6456140350877  4 55.6491228070175  Z " stroke-width="2" stroke="#e4e4e4" fill="none" transform="matrix(1 0 0 1 73 179 )" mask="url(#clip60)" />
  </g>
</svg>