<?xml version="1.0" encoding="utf-8"?>
<svg version="1.1" xmlns:xlink="http://www.w3.org/1999/xlink" width="214px" height="95px" xmlns="http://www.w3.org/2000/svg">
  <defs>
    <mask fill="white" id="clip61">
      <path d="M 4 86.6666666666667  L 4 37.4752475247525  L 0.514851485148512 30.049504950495  L 4 24.6864686468647  L 4 8.33333333333333  C 4 3.66666666666667  6.2 0  9 0  L 209 0  C 211.8 0  214 3.66666666666667  214 8.33333333333333  L 214 86.6666666666667  C 214 91.3333333333333  211.8 95  209 95  L 9 95  C 6.2 95  4 91.3333333333333  4 86.6666666666667  Z " fill-rule="evenodd" />
    </mask>
  </defs>
  <g transform="matrix(1 0 0 1 -73 -342 )">
    <path d="M 4 86.6666666666667  L 4 37.4752475247525  L 0.514851485148512 30.049504950495  L 4 24.6864686468647  L 4 8.33333333333333  C 4 3.66666666666667  6.2 0  9 0  L 209 0  C 211.8 0  214 3.66666666666667  214 8.33333333333333  L 214 86.6666666666667  C 214 91.3333333333333  211.8 95  209 95  L 9 95  C 6.2 95  4 91.3333333333333  4 86.6666666666667  Z " fill-rule="nonzero" fill="#ffffff" stroke="none" transform="matrix(1 0 0 1 73 342 )" />
    <path d="M 4 86.6666666666667  L 4 37.4752475247525  L 0.514851485148512 30.049504950495  L 4 24.6864686468647  L 4 8.33333333333333  C 4 3.66666666666667  6.2 0  9 0  L 209 0  C 211.8 0  214 3.66666666666667  214 8.33333333333333  L 214 86.6666666666667  C 214 91.3333333333333  211.8 95  209 95  L 9 95  C 6.2 95  4 91.3333333333333  4 86.6666666666667  Z " stroke-width="2" stroke="#e4e4e4" fill="none" transform="matrix(1 0 0 1 73 342 )" mask="url(#clip61)" />
  </g>
</svg>