<?xml version="1.0" encoding="utf-8"?>
<svg version="1.1" xmlns:xlink="http://www.w3.org/1999/xlink" width="214px" height="45px" xmlns="http://www.w3.org/2000/svg">
  <defs>
    <mask fill="white" id="clip39">
      <path d="M 4 41.0526315789474  L 4 17.7514330380406  L 0.514851485148512 14.2339760291819  L 4 11.6935904116728  L 4 3.94736842105263  C 4 1.73684210526316  6.2 0  9 0  L 209 0  C 211.8 0  214 1.73684210526316  214 3.94736842105263  L 214 41.0526315789474  C 214 43.2631578947368  211.8 45  209 45  L 9 45  C 6.2 45  4 43.2631578947368  4 41.0526315789474  Z " fill-rule="evenodd" />
    </mask>
  </defs>
  <g transform="matrix(1 0 0 1 -73 -31 )">
    <path d="M 4 41.0526315789474  L 4 17.7514330380406  L 0.514851485148512 14.2339760291819  L 4 11.6935904116728  L 4 3.94736842105263  C 4 1.73684210526316  6.2 0  9 0  L 209 0  C 211.8 0  214 1.73684210526316  214 3.94736842105263  L 214 41.0526315789474  C 214 43.2631578947368  211.8 45  209 45  L 9 45  C 6.2 45  4 43.2631578947368  4 41.0526315789474  Z " fill-rule="nonzero" fill="#ffffff" stroke="none" transform="matrix(1 0 0 1 73 31 )" />
    <path d="M 4 41.0526315789474  L 4 17.7514330380406  L 0.514851485148512 14.2339760291819  L 4 11.6935904116728  L 4 3.94736842105263  C 4 1.73684210526316  6.2 0  9 0  L 209 0  C 211.8 0  214 1.73684210526316  214 3.94736842105263  L 214 41.0526315789474  C 214 43.2631578947368  211.8 45  209 45  L 9 45  C 6.2 45  4 43.2631578947368  4 41.0526315789474  Z " stroke-width="2" stroke="#e4e4e4" fill="none" transform="matrix(1 0 0 1 73 31 )" mask="url(#clip39)" />
  </g>
</svg>