<?xml version="1.0" encoding="utf-8"?>
<svg version="1.1" xmlns:xlink="http://www.w3.org/1999/xlink" width="46px" height="50px" xmlns="http://www.w3.org/2000/svg">
  <g transform="matrix(1 0 0 1 -1200 -1563 )">
    <path d="M 32.0396634615385 37.9324776785714  C 32.8137019230769 37.0303199404762  33.2007211538462 35.9002976190476  33.2007211538462 34.5424107142857  C 33.2007211538462 33.4821428571429  33.1500400641026 32.4869791666667  33.0486778846154 31.5569196428571  C 32.9473157051282 30.6268601190476  32.7538060897436 29.692150297619  32.4681490384615 28.7527901785714  C 32.1824919871795 27.8134300595238  31.8185096153846 27.0135788690476  31.3762019230769 26.3532366071429  C 30.9338942307692 25.6928943452381  30.3441506410256 25.1534598214286  29.6069711538462 24.7349330357143  C 28.8697916666667 24.31640625  28.03125 24.1071428571429  27.0913461538462 24.1071428571429  C 26.9807692307692 24.1815476190476  26.6720753205128 24.3722098214286  26.1652644230769 24.6791294642857  C 25.658453525641 24.9860491071429  25.2668269230769 25.2139136904762  24.9903846153846 25.3627232142857  C 24.7139423076923 25.5115327380952  24.3407451923077 25.6975446428571  23.8707932692308 25.9207589285714  C 23.4008413461538 26.1439732142857  22.9493189102564 26.3020833333333  22.5162259615385 26.3950892857143  C 22.0831330128205 26.4880952380952  21.6546474358974 26.5345982142857  21.2307692307692 26.5345982142857  C 20.806891025641 26.5345982142857  20.378405448718 26.4880952380952  19.9453125 26.3950892857143  C 19.5122195512821 26.3020833333333  19.0606971153846 26.1439732142857  18.5907451923077 25.9207589285714  C 18.1207932692308 25.6975446428571  17.7475961538462 25.5115327380952  17.4711538461538 25.3627232142857  C 17.1947115384615 25.2139136904762  16.8030849358974 24.9860491071429  16.2962740384615 24.6791294642857  C 15.7894631410256 24.3722098214286  15.4807692307692 24.1815476190476  15.3701923076923 24.1071428571429  C 14.4302884615385 24.1071428571429  13.5917467948718 24.31640625  12.8545673076923 24.7349330357143  C 12.1173878205128 25.1534598214286  11.5276442307692 25.6928943452381  11.0853365384615 26.3532366071429  C 10.6430288461538 27.0135788690476  10.279046474359 27.8134300595238  9.99338942307692 28.7527901785714  C 9.70773237179487 29.692150297619  9.51422275641026 30.6268601190476  9.41286057692308 31.5569196428571  C 9.3114983974359 32.4869791666667  9.26081730769231 33.4821428571429  9.26081730769231 34.5424107142857  C 9.26081730769231 35.9002976190476  9.64783653846154 37.0303199404762  10.421875 37.9324776785714  C 11.1959134615385 38.8346354166667  12.1450320512821 39.2857142857143  13.2692307692308 39  L 29.1923076923077 39  C 30.3165064102564 39.2857142857143  31.265625 38.8346354166667  32.0396634615385 37.9324776785714  Z M 26.3034855769231 23.0747767857143  C 27.7133413461538 21.6610863095238  28.4182692307692 19.9590773809524  28.4182692307692 17.96875  C 28.4182692307692 15.9598214285714  27.7133413461538 14.2485119047619  26.3034855769231 12.8348214285714  C 24.8936298076923 11.4211309523809  23.2027243589744 10.7142857142857  21.2307692307692 10.7142857142857  C 19.2588141025641 10.7142857142857  17.5679086538462 11.4211309523809  16.1580528846154 12.8348214285714  C 14.7481971153846 14.2485119047619  14.0432692307692 15.9598214285714  14.0432692307692 17.96875  C 14.0432692307692 19.9590773809524  14.7481971153846 21.6610863095238  16.1580528846154 23.0747767857143  C 17.5679086538462 24.4884672619048  19.2588141025641 25.1953125  21.2307692307692 25.1953125  C 23.2027243589744 25.1953125  24.8936298076923 24.4884672619048  26.3034855769231 23.0747767857143  Z M 45.7512019230769 32.3939732142857  C 45.9170673076923 32.5613839285714  46 32.7752976190476  46 33.0357142857143  L 46 38.3928571428571  C 46 38.6532738095238  45.9170673076923 38.8671875  45.7512019230769 39.0345982142857  C 45.5853365384615 39.2020089285714  45.3733974358974 39.2857142857143  45.1153846153846 39.2857142857143  L 42.4615384615385 39.2857142857143  L 42.4615384615385 45.5357142857143  C 42.4615384615385 46.7633928571429  42.0284455128205 47.8143601190476  41.1622596153846 48.6886160714286  C 40.2960737179487 49.5628720238095  39.2548076923077 50  38.0384615384615 50  L 4.42307692307692 50  C 3.20673076923077 50  2.16546474358974 49.5628720238095  1.29927884615385 48.6886160714286  C 0.433092948717949 47.8143601190476  0 46.7633928571429  0 45.5357142857143  L 0 4.46428571428572  C 0 3.23660714285715  0.433092948717949 2.18563988095238  1.29927884615385 1.31138392857143  C 2.16546474358974 0.437127976190477  3.20673076923077 0  4.42307692307692 0  L 38.0384615384615 0  C 39.2548076923077 0  40.2960737179487 0.437127976190477  41.1622596153846 1.31138392857143  C 42.0284455128205 2.18563988095238  42.4615384615385 3.23660714285715  42.4615384615385 4.46428571428572  L 42.4615384615385 10.7142857142857  L 45.1153846153846 10.7142857142857  C 45.3733974358974 10.7142857142857  45.5853365384615 10.7979910714286  45.7512019230769 10.9654017857143  C 45.9170673076923 11.1328125  46 11.3467261904762  46 11.6071428571429  L 46 16.9642857142857  C 46 17.2247023809524  45.9170673076923 17.4386160714286  45.7512019230769 17.6060267857143  C 45.5853365384615 17.7734375  45.3733974358974 17.8571428571429  45.1153846153846 17.8571428571429  L 42.4615384615385 17.8571428571429  L 42.4615384615385 21.4285714285714  L 45.1153846153846 21.4285714285714  C 45.3733974358974 21.4285714285714  45.5853365384615 21.5122767857143  45.7512019230769 21.6796875  C 45.9170673076923 21.8470982142857  46 22.0610119047619  46 22.3214285714286  L 46 27.6785714285714  C 46 27.9389880952381  45.9170673076923 28.1529017857143  45.7512019230769 28.3203125  C 45.5853365384615 28.4877232142857  45.3733974358974 28.5714285714286  45.1153846153846 28.5714285714286  L 42.4615384615385 28.5714285714286  L 42.4615384615385 32.1428571428571  L 45.1153846153846 32.1428571428571  C 45.3733974358974 32.1428571428571  45.5853365384615 32.2265625  45.7512019230769 32.3939732142857  Z " fill-rule="nonzero" fill="#95f204" stroke="none" transform="matrix(1 0 0 1 1200 1563 )" />
  </g>
</svg>