<?xml version="1.0" encoding="utf-8"?>
<svg version="1.1" xmlns:xlink="http://www.w3.org/1999/xlink" width="72px" height="72px" xmlns="http://www.w3.org/2000/svg">
  <g transform="matrix(1 0 0 1 -2355 -1757 )">
    <path d="M 2387.93164339028 1757.63285157446  C 2388.95195577199 1757.54433207501  2389.97569884216 1757.5  2391 1757.5  C 2410.60610861899 1757.5  2426.5 1773.39389138101  2426.5 1793  C 2426.5 1812.60610861899  2410.60610861899 1828.5  2391 1828.5  C 2371.39389138101 1828.5  2355.5 1812.60610861899  2355.5 1793  C 2355.5 1786.93519765408  2357.05371061054 1780.97438352717  2360.00914695025 1775.68477291851  L 2390.75 1793.43301270189  A 0.5 0.5 0 0 0 2391.49747076072 1792.9497720971 L 2387.93164339024 1757.63285157447  Z " fill-rule="nonzero" fill="#0096fa" stroke="none" />
    <path d="M 2387.93164339028 1757.63285157446  C 2388.95195577199 1757.54433207501  2389.97569884216 1757.5  2391 1757.5  C 2410.60610861899 1757.5  2426.5 1773.39389138101  2426.5 1793  C 2426.5 1812.60610861899  2410.60610861899 1828.5  2391 1828.5  C 2371.39389138101 1828.5  2355.5 1812.60610861899  2355.5 1793  C 2355.5 1786.93519765408  2357.05371061054 1780.97438352717  2360.00914695025 1775.68477291851  L 2390.75 1793.43301270189  A 0.5 0.5 0 0 0 2391.49747076072 1792.9497720971 L 2387.93164339024 1757.63285157447  Z " stroke-width="1" stroke="#ffffff" fill="none" />
  </g>
</svg>