<?xml version="1.0" encoding="utf-8"?>
<svg version="1.1" xmlns:xlink="http://www.w3.org/1999/xlink" width="44px" height="44px" xmlns="http://www.w3.org/2000/svg">
  <g transform="matrix(1 0 0 1 -2369 -1771 )">
    <path d="M 2391 1771  C 2403.32 1771  2413 1780.68  2413 1793  C 2413 1805.32  2403.32 1815  2391 1815  C 2378.68 1815  2369 1805.32  2369 1793  C 2369 1780.68  2378.68 1771  2391 1771  Z " fill-rule="nonzero" fill="#ffffff" stroke="none" />
    <path d="M 2391 1771.5  C 2403.04 1771.5  2412.5 1780.96  2412.5 1793  C 2412.5 1805.04  2403.04 1814.5  2391 1814.5  C 2378.96 1814.5  2369.5 1805.04  2369.5 1793  C 2369.5 1780.96  2378.96 1771.5  2391 1771.5  Z " stroke-width="1" stroke="#ffffff" fill="none" />
  </g>
</svg>