<?xml version="1.0" encoding="utf-8"?>
<svg version="1.1" xmlns:xlink="http://www.w3.org/1999/xlink" width="98px" height="98px" xmlns="http://www.w3.org/2000/svg">
  <g transform="matrix(1 0 0 1 -184 -210 )">
    <path d="M 233 215  C 257.64 215  277 234.36  277 259  C 277 283.64  257.64 303  233 303  C 208.36 303  189 283.64  189 259  C 189 234.36  208.36 215  233 215  Z " fill-rule="nonzero" fill="#ffffff" stroke="none" fill-opacity="0" />
    <path d="M 233 213  C 258.76 213  279 233.24  279 259  C 279 284.76  258.76 305  233 305  C 207.24 305  187 284.76  187 259  C 187 233.24  207.24 213  233 213  Z " stroke-width="6" stroke="#95f204" fill="none" />
  </g>
</svg>