<?xml version="1.0" encoding="utf-8"?>
<svg version="1.1" xmlns:xlink="http://www.w3.org/1999/xlink" width="110px" height="110px" xmlns="http://www.w3.org/2000/svg">
  <g transform="matrix(1 0 0 1 -261 -103 )">
    <path d="M 316 108  C 344 108  366 130  366 158  C 366 186  344 208  316 208  C 288 208  266 186  266 158  C 266 130  288 108  316 108  Z " fill-rule="nonzero" fill="#ffffff" stroke="none" fill-opacity="0" />
    <path d="M 316 106  C 345.12 106  368 128.88  368 158  C 368 187.12  345.12 210  316 210  C 286.88 210  264 187.12  264 158  C 264 128.88  286.88 106  316 106  Z " stroke-width="6" stroke="#95f204" fill="none" />
  </g>
</svg>