<?xml version="1.0" encoding="utf-8"?>
<svg version="1.1" xmlns:xlink="http://www.w3.org/1999/xlink" width="64px" height="20px" xmlns="http://www.w3.org/2000/svg">
  <defs>
    <mask fill="white" id="clip66">
      <path d="M 0 16  L 0 4  C 0 1.75999999999999  2.16615384615384 0  4.92307692307692 0  L 23.3846153846154 0  L 59.0769230769231 0  C 61.8338461538462 0  64 1.75999999999999  64 4  L 64 16  C 64 18.24  61.8338461538462 20  59.0769230769231 20  L 4.92307692307692 20  C 2.16615384615384 20  0 18.24  0 16  Z " fill-rule="evenodd" />
    </mask>
  </defs>
  <g transform="matrix(1 0 0 1 -213 -213 )">
    <path d="M 0 16  L 0 4  C 0 1.75999999999999  2.16615384615384 0  4.92307692307692 0  L 23.3846153846154 0  L 59.0769230769231 0  C 61.8338461538462 0  64 1.75999999999999  64 4  L 64 16  C 64 18.24  61.8338461538462 20  59.0769230769231 20  L 4.92307692307692 20  C 2.16615384615384 20  0 18.24  0 16  Z " fill-rule="nonzero" fill="#fff2e8" stroke="none" transform="matrix(1 0 0 1 213 213 )" />
    <path d="M 0 16  L 0 4  C 0 1.75999999999999  2.16615384615384 0  4.92307692307692 0  L 23.3846153846154 0  L 59.0769230769231 0  C 61.8338461538462 0  64 1.75999999999999  64 4  L 64 16  C 64 18.24  61.8338461538462 20  59.0769230769231 20  L 4.92307692307692 20  C 2.16615384615384 20  0 18.24  0 16  Z " stroke-width="2" stroke="#ffbb96" fill="none" transform="matrix(1 0 0 1 213 213 )" mask="url(#clip66)" />
  </g>
</svg>