<?xml version="1.0" encoding="utf-8"?>
<svg version="1.1" xmlns:xlink="http://www.w3.org/1999/xlink" width="23px" height="23px" xmlns="http://www.w3.org/2000/svg">
  <g transform="matrix(1 0 0 1 -17 -48 )">
    <path d="M 28.5 48  C 34.94 48  40 53.06  40 59.5  C 40 65.94  34.94 71  28.5 71  C 22.06 71  17 65.94  17 59.5  C 17 53.06  22.06 48  28.5 48  Z " fill-rule="nonzero" fill="#ffffff" stroke="none" />
    <path d="M 28.5 48.5  C 34.66 48.5  39.5 53.34  39.5 59.5  C 39.5 65.66  34.66 70.5  28.5 70.5  C 22.34 70.5  17.5 65.66  17.5 59.5  C 17.5 53.34  22.34 48.5  28.5 48.5  Z " stroke-width="1" stroke="#1890ff" fill="none" />
  </g>
</svg>