<?xml version="1.0" encoding="utf-8"?>
<svg version="1.1" xmlns:xlink="http://www.w3.org/1999/xlink" width="77px" height="20px" xmlns="http://www.w3.org/2000/svg">
  <defs>
    <mask fill="white" id="clip41">
      <path d="M 0 16  L 0 4  C 0 1.75999999999999  1.18877192982456 0  2.70175438596491 0  L 32.4277401424353 0  L 74.2982456140351 0  C 75.8112280701754 0  77 1.75999999999999  77 4  L 77 16  C 77 18.24  75.8112280701754 20  74.2982456140351 20  L 2.70175438596491 20  C 1.18877192982456 20  0 18.24  0 16  Z " fill-rule="evenodd" />
    </mask>
  </defs>
  <g transform="matrix(1 0 0 1 -151 -186 )">
    <path d="M 0 16  L 0 4  C 0 1.75999999999999  1.18877192982456 0  2.70175438596491 0  L 32.4277401424353 0  L 74.2982456140351 0  C 75.8112280701754 0  77 1.75999999999999  77 4  L 77 16  C 77 18.24  75.8112280701754 20  74.2982456140351 20  L 2.70175438596491 20  C 1.18877192982456 20  0 18.24  0 16  Z " fill-rule="nonzero" fill="#e6f7ff" stroke="none" transform="matrix(1 0 0 1 151 186 )" />
    <path d="M 0 16  L 0 4  C 0 1.75999999999999  1.18877192982456 0  2.70175438596491 0  L 32.4277401424353 0  L 74.2982456140351 0  C 75.8112280701754 0  77 1.75999999999999  77 4  L 77 16  C 77 18.24  75.8112280701754 20  74.2982456140351 20  L 2.70175438596491 20  C 1.18877192982456 20  0 18.24  0 16  Z " stroke-width="2" stroke="#91d5ff" fill="none" transform="matrix(1 0 0 1 151 186 )" mask="url(#clip41)" />
  </g>
</svg>