<?xml version="1.0" encoding="utf-8"?>
<svg version="1.1" xmlns:xlink="http://www.w3.org/1999/xlink" width="120px" height="20px" xmlns="http://www.w3.org/2000/svg">
  <defs>
    <mask fill="white" id="clip42">
      <path d="M 0 16  L 0 4  C 0 1.75999999999999  1.32 0  2.99999999999999 0  L 52.4841472911336 0  L 117 0  C 118.68 0  120 1.75999999999999  120 4  L 120 16  C 120 18.24  118.68 20  117 20  L 52.8415841584158 20  L 2.99999999999999 20  C 1.32 20  0 18.24  0 16  Z " fill-rule="evenodd" />
    </mask>
  </defs>
  <g transform="matrix(1 0 0 1 -235 -186 )">
    <path d="M 0 16  L 0 4  C 0 1.75999999999999  1.32 0  2.99999999999999 0  L 52.4841472911336 0  L 117 0  C 118.68 0  120 1.75999999999999  120 4  L 120 16  C 120 18.24  118.68 20  117 20  L 52.8415841584158 20  L 2.99999999999999 20  C 1.32 20  0 18.24  0 16  Z " fill-rule="nonzero" fill="#e6f7ff" stroke="none" transform="matrix(1 0 0 1 235 186 )" />
    <path d="M 0 16  L 0 4  C 0 1.75999999999999  1.32 0  2.99999999999999 0  L 52.4841472911336 0  L 117 0  C 118.68 0  120 1.75999999999999  120 4  L 120 16  C 120 18.24  118.68 20  117 20  L 52.8415841584158 20  L 2.99999999999999 20  C 1.32 20  0 18.24  0 16  Z " stroke-width="2" stroke="#91d5ff" fill="none" transform="matrix(1 0 0 1 235 186 )" mask="url(#clip42)" />
  </g>
</svg>